<svg xmlns="http://www.w3.org/2000/svg" width="110" height="40" viewBox="0 0 110 40">
  <metadata><?xpacket begin="﻿" id="W5M0MpCehiHzreSzNTczkc9d"?>
<x:xmpmeta xmlns:x="adobe:ns:meta/" x:xmptk="Adobe XMP Core 5.6-c138 79.159824, 2016/09/14-01:09:01        ">
   <rdf:RDF xmlns:rdf="http://www.w3.org/1999/02/22-rdf-syntax-ns#">
      <rdf:Description rdf:about=""/>
   </rdf:RDF>
</x:xmpmeta>
                                                                                                    
                                                                                                    
                                                                                                    
                                                                                                    
                                                                                                    
                                                                                                    
                                                                                                    
                                                                                                    
                                                                                                    
                                                                                                    
                                                                                                    
                                                                                                    
                                                                                                    
                                                                                                    
                                                                                                    
                                                                                                    
                                                                                                    
                                                                                                    
                                                                                                    
                                                                                                    
                           
<?xpacket end="w"?></metadata>
<defs>
    <style>
      .cls-1 {
        fill: #e44d3a;
        fill-rule: evenodd;
      }
    </style>
  </defs>
  <path id="logo" class="cls-1" d="M6419.25,14.365a10.069,10.069,0,0,1-6.09,3.545V20.49h0.55a7.023,7.023,0,0,1,2.47.267,1.177,1.177,0,0,1,.68.786,21.377,21.377,0,0,1,.12,3.09V36.5h5.52V14.365h-3.25Zm5.38,22.135h7.26a15.52,15.52,0,0,0,3.09-.226,4.046,4.046,0,0,0,1.72-.793,2.988,2.988,0,0,0,.98-1.572,17.812,17.812,0,0,0,.28-3.985V22.172a29.146,29.146,0,0,0-.19-4.218,4.012,4.012,0,0,0-.96-1.948,4.306,4.306,0,0,0-2.23-1.258,26.81,26.81,0,0,0-5.64-.383h-4.31V36.5Zm7.04-18.149a0.9,0.9,0,0,1,.44.622,12.267,12.267,0,0,1,.09,1.928v8.6a7.4,7.4,0,0,1-.28,2.714,1.691,1.691,0,0,1-1.53.5V18.152A2.819,2.819,0,0,1,6431.67,18.351Zm20.7,6.993a11.072,11.072,0,0,0-.61-4.095,4.86,4.86,0,0,0-2.12-2.338,7.547,7.547,0,0,0-3.84-.882,7.447,7.447,0,0,0-3.36.731,4.41,4.41,0,0,0-2.11,2.105,9.151,9.151,0,0,0-.64,3.753V29.91a12.576,12.576,0,0,0,.29,3.083,4.786,4.786,0,0,0,3.12,3.329,8.694,8.694,0,0,0,3.09.506,7.661,7.661,0,0,0,3-.513,4.862,4.862,0,0,0,1.97-1.538,5.227,5.227,0,0,0,.99-1.928,11.375,11.375,0,0,0,.22-2.584v-1.34h-5.24v2.393a5.2,5.2,0,0,1-.21,1.825,0.826,0.826,0,0,1-.84.472,0.7,0.7,0,0,1-.69-0.355,4.38,4.38,0,0,1-.17-1.586V27.75h7.15V25.344Zm-7.15-.547V23.471a7.451,7.451,0,0,1,.13-1.88,0.672,0.672,0,0,1,.71-0.349,0.6,0.6,0,0,1,.62.41,6.7,6.7,0,0,1,.15,1.818V24.8h-1.61Zm20.22-1.7a10.65,10.65,0,0,0-.14-2.01,3.238,3.238,0,0,0-.83-1.395,4.657,4.657,0,0,0-1.94-1.21,9.021,9.021,0,0,0-3.07-.458,8.419,8.419,0,0,0-3.19.561,3.787,3.787,0,0,0-1.95,1.593,6.9,6.9,0,0,0-.57,3.206,6.155,6.155,0,0,0,.53,2.645,7.176,7.176,0,0,0,2.97,2.481,25.556,25.556,0,0,1,3.21,1.941,2.759,2.759,0,0,1,.3,1.627,2.158,2.158,0,0,1-.23,1.237,0.986,0.986,0,0,1-.82.294,0.715,0.715,0,0,1-.73-0.437,6.08,6.08,0,0,1-.19-1.9V30.129h-4.89V31a7.947,7.947,0,0,0,.56,3.391,3.919,3.919,0,0,0,2.06,1.777,8.947,8.947,0,0,0,3.6.656,7.864,7.864,0,0,0,3.25-.608,3.794,3.794,0,0,0,1.92-1.736,7.659,7.659,0,0,0,.57-3.343,5.126,5.126,0,0,0-.75-3.021,8.634,8.634,0,0,0-3.16-2.215,14.818,14.818,0,0,1-2.38-1.354,1.945,1.945,0,0,1-.7-0.854,4.522,4.522,0,0,1-.12-1.224,1.485,1.485,0,0,1,.24-0.923,0.8,0.8,0,0,1,.69-0.308,0.7,0.7,0,0,1,.72.335,5.142,5.142,0,0,1,.14,1.593v0.984h4.9V23.1Zm1.87-8.736V17.25h5.68V14.365h-5.68Zm0,3.992V36.5h5.68V18.357h-5.68Zm15.08,0-0.4,1.371a4.542,4.542,0,0,0-1.53-1.274,4.19,4.19,0,0,0-1.89-.425,3.441,3.441,0,0,0-2.83,1.135,5.885,5.885,0,0,0-.93,3.719v6.59a8.394,8.394,0,0,0,.36,2.782,3.012,3.012,0,0,0,1.32,1.579,4.55,4.55,0,0,0,2.45.6,4.273,4.273,0,0,0,1.65-.329,5.222,5.222,0,0,0,1.49-.973V34.5a3.7,3.7,0,0,1-.2,1.546,0.874,0.874,0,0,1-.83.37c-0.59,0-.88-0.4-0.88-1.2h-5.36c0.04,1.75.59,2.924,1.66,3.521a8.608,8.608,0,0,0,4.23.9,11.218,11.218,0,0,0,3.57-.485,4.948,4.948,0,0,0,2.2-1.408,3.683,3.683,0,0,0,.93-1.75,32.461,32.461,0,0,0,.13-3.657V18.357h-5.14Zm-0.4,10.432a7.7,7.7,0,0,1-.16,1.982,0.686,0.686,0,0,1-.72.438,0.6,0.6,0,0,1-.62-0.362,4.72,4.72,0,0,1-.16-1.579v-6.1a3.944,3.944,0,0,1,.2-1.538,0.709,0.709,0,0,1,.68-0.39,0.621,0.621,0,0,1,.64.342,5.5,5.5,0,0,1,.14,1.586v5.619Zm7.46-10.432V36.5h5.52V24.236a11.887,11.887,0,0,1,.15-2.522,0.687,0.687,0,0,1,.74-0.472,0.615,0.615,0,0,1,.68.41,10.822,10.822,0,0,1,.13,2.283V36.5h5.52V23.785a15.638,15.638,0,0,0-.26-3.4,2.969,2.969,0,0,0-1.16-1.688,3.809,3.809,0,0,0-2.33-.67,3.951,3.951,0,0,0-2,.5,4.124,4.124,0,0,0-1.47,1.5l0.1-1.671h-5.62Z" transform="translate(-6402.675 -7)"/>
</svg>
